<svg width="26" height="26" viewBox="0 0 26 26" fill="none" xmlns="http://www.w3.org/2000/svg">
<g opacity="0.8">
<path d="M26 13C26 20.1797 20.1797 26 13 26C5.8203 26 0 20.1797 0 13C0 5.8203 5.8203 0 13 0C20.1797 0 26 5.8203 26 13Z" fill="#F1F2F5"/>
<path d="M12.008 10.468H14.192V18H12.008V10.468ZM13.1 9.418C12.6987 9.418 12.372 9.30133 12.12 9.068C11.868 8.83467 11.742 8.54533 11.742 8.2C11.742 7.85467 11.868 7.56533 12.12 7.332C12.372 7.09867 12.6987 6.982 13.1 6.982C13.5013 6.982 13.828 7.094 14.08 7.318C14.332 7.542 14.458 7.822 14.458 8.158C14.458 8.522 14.332 8.82533 14.08 9.068C13.828 9.30133 13.5013 9.418 13.1 9.418Z" fill="#231F20"/>
</g>
</svg>
